<?xml version="1.0" standalone="no"?>
<!DOCTYPE svg PUBLIC "-//W3C//DTD SVG 20010904//EN"
 "http://www.w3.org/TR/2001/REC-SVG-20010904/DTD/svg10.dtd">
<svg version="1.0" xmlns="http://www.w3.org/2000/svg"
 width="512.000000pt" height="512.000000pt" viewBox="0 0 512.000000 512.000000"
 preserveAspectRatio="xMidYMid meet">

<g transform="translate(0.000000,512.000000) scale(0.100000,-0.100000)"
fill="#000000" stroke="none">
<path d="M1068 4972 c-193 -192 -192 -171 -15 -353 72 -75 144 -144 159 -154
53 -33 118 4 118 68 0 22 -16 45 -65 96 -36 37 -65 71 -65 74 0 4 460 7 1022
7 l1022 0 -67 -67 c-84 -86 -94 -118 -48 -164 52 -51 74 -40 230 114 139 137
168 179 152 219 -5 13 -74 87 -153 166 -121 118 -149 142 -174 142 -33 -1 -55
-15 -73 -48 -20 -37 -5 -70 61 -138 l61 -64 -1018 0 -1018 0 66 69 c54 55 67
75 67 100 0 43 -39 81 -81 81 -28 0 -51 -19 -181 -148z"/>
<path d="M2129 4567 c-104 -29 -190 -104 -238 -206 l-26 -56 -3 -791 -3 -791
-65 -6 c-164 -16 -293 -131 -324 -292 -8 -44 -11 -187 -7 -500 5 -486 8 -516
77 -710 58 -162 121 -271 253 -435 84 -104 146 -220 172 -320 12 -44 19 -123
22 -243 5 -175 6 -178 31 -197 33 -27 65 -25 99 4 27 24 28 27 31 143 6 206
-23 364 -95 508 -35 71 -69 119 -188 275 -107 140 -183 304 -222 484 -21 94
-31 908 -13 977 22 81 113 149 203 149 l27 0 0 -301 0 -301 29 -29 c16 -16 39
-29 51 -29 12 0 35 13 51 29 l29 29 0 1149 0 1149 25 50 c27 54 60 84 114 102
89 31 187 -11 231 -99 19 -37 20 -65 20 -944 l0 -906 25 -24 c32 -33 83 -34
113 -2 21 22 22 32 22 198 0 96 5 192 11 214 15 53 73 110 129 125 55 15 136
2 180 -30 59 -42 65 -65 70 -288 5 -199 6 -204 29 -223 32 -26 82 -25 108 4
20 20 22 36 25 212 3 201 6 214 56 268 82 87 265 60 316 -46 13 -28 16 -68 16
-205 0 -220 11 -252 89 -252 44 0 68 29 76 91 16 126 78 192 178 192 82 0 140
-39 172 -115 22 -54 22 -982 0 -1111 -40 -232 -116 -387 -311 -632 -68 -87
-137 -224 -166 -330 -16 -63 -22 -119 -25 -267 l-5 -187 25 -25 c34 -34 80
-34 112 -1 24 23 25 28 25 175 0 96 6 179 15 228 23 114 88 239 187 363 135
169 213 313 263 484 53 182 56 235 53 800 l-3 520 -33 67 c-60 123 -169 190
-307 190 -47 0 -88 -7 -125 -21 -30 -12 -56 -21 -56 -21 -1 0 -4 18 -8 41 -28
176 -224 305 -409 269 -65 -12 -164 -59 -193 -91 -16 -18 -17 -17 -48 13 -17
17 -60 45 -96 62 -57 27 -75 31 -150 30 -63 0 -99 -6 -140 -22 -30 -12 -56
-22 -57 -22 -2 0 -4 276 -5 613 l-3 612 -27 58 c-36 77 -112 149 -185 177 -71
27 -163 34 -224 17z"/>
</g>
</svg>
