<?xml version="1.0" encoding="UTF-8" standalone="no"?>
<svg
   version="1.1"
   width="237.6535"
   height="288.46951"
   id="svg25"
   viewBox="0 0 237.6535 288.46951"
   sodipodi:docname="ce7b228bede506f5bfd03cf3f95093d3.cdr"
   xmlns:inkscape="http://www.inkscape.org/namespaces/inkscape"
   xmlns:sodipodi="http://sodipodi.sourceforge.net/DTD/sodipodi-0.dtd"
   xmlns="http://www.w3.org/2000/svg"
   xmlns:svg="http://www.w3.org/2000/svg">
  <defs
     id="defs29" />
  <sodipodi:namedview
     id="namedview27"
     pagecolor="#ffffff"
     bordercolor="#666666"
     borderopacity="1.0"
     inkscape:pageshadow="2"
     inkscape:pageopacity="0.0"
     inkscape:pagecheckerboard="0" />
  <g
     id="Layer1000"
     transform="translate(-302.1029,-153.6052)">
    <g
       id="Layer1001">
      <g
         id="Layer1002">
        <path
           d="m 428.2348,411.9718 h 5.5068 v 0.0158 h 8.164 c 0.5364,0 1.0549,0.0186 1.5548,0.0548 0.4915,0.0362 0.9637,0.0913 1.4137,0.1647 0.4543,0.0747 0.8809,0.1681 1.2762,0.2798 0.4009,0.1126 0.779,0.2464 1.1321,0.4009 0.3462,0.1516 0.6804,0.3286 0.9999,0.5287 0.3156,0.1948 0.6133,0.4156 0.8941,0.6582 0.2798,0.2423 0.5396,0.5045 0.778,0.7854 0.2338,0.2755 0.4522,0.5775 0.654,0.9033 0.1987,0.3149 0.3729,0.6371 0.5242,0.9664 0.1523,0.3343 0.2791,0.6667 0.3774,0.9974 v 0.002 c 0.1007,0.3398 0.1769,0.6835 0.2267,1.0286 0.0506,0.3507 0.0766,0.7018 0.0766,1.05 0,0.3216 -0.0235,0.646 -0.0688,0.9725 -0.0457,0.3265 -0.1134,0.6431 -0.2008,0.9489 -0.0861,0.2988 -0.1987,0.6053 -0.3378,0.9177 -0.1362,0.3082 -0.2917,0.6035 -0.463,0.885 -0.1756,0.2865 -0.3785,0.5656 -0.6088,0.837 -0.2208,0.2629 -0.4686,0.5132 -0.7397,0.7502 -0.1485,0.1296 -0.3054,0.2563 -0.47,0.3778 0.318,0.1537 0.6214,0.3247 0.9082,0.5118 0.3531,0.23 0.6842,0.488 0.9907,0.772 0.3086,0.2833 0.5866,0.5905 0.8345,0.9184 0.2489,0.3272 0.4679,0.6698 0.6554,1.0272 0.1882,0.3577 0.3454,0.7334 0.4718,1.1255 0.1271,0.3918 0.2215,0.7941 0.283,1.2028 v 0.003 c 0.0621,0.4142 0.093,0.8401 0.093,1.2754 0,0.3444 -0.0186,0.6906 -0.0572,1.0385 -0.0376,0.337 -0.0945,0.6723 -0.1696,1.0026 -0.0765,0.3353 -0.1699,0.6597 -0.2808,0.9711 -0.1099,0.3085 -0.2419,0.6196 -0.3943,0.9313 -0.1492,0.3019 -0.3058,0.586 -0.47,0.8507 -0.1728,0.2791 -0.3497,0.5329 -0.5288,0.7604 -0.1843,0.2338 -0.3837,0.4564 -0.595,0.6656 -0.2064,0.204 -0.4251,0.3928 -0.6561,0.5663 l -0.002,0.002 c -0.2258,0.1678 -0.4652,0.3251 -0.7148,0.4704 -0.2503,0.1457 -0.5129,0.2809 -0.7857,0.4031 -0.2608,0.1176 -0.5477,0.231 -0.8573,0.3377 -0.2963,0.1046 -0.6056,0.1966 -0.9268,0.2787 -0.3191,0.0808 -0.6596,0.1524 -1.0209,0.2145 -0.3437,0.0583 -0.7151,0.1089 -1.1129,0.1503 -0.3854,0.0397 -0.7888,0.0699 -1.2087,0.0899 -0.4413,0.021 -0.8752,0.0319 -1.301,0.0319 H 430.791 v -0.7664 -4.0014 h 5.1915 3.6806 2.4227 c 0.5985,0 1.089,-0.0109 1.4688,-0.0313 0.1969,-0.0101 0.369,-0.0235 0.5147,-0.0382 0.1474,-0.0155 0.2717,-0.0323 0.3693,-0.0506 l 0.005,-0.003 c 0.2037,-0.0358 0.3848,-0.0748 0.5431,-0.1158 0.1577,-0.0404 0.3213,-0.091 0.4887,-0.1506 0.1566,-0.0562 0.3002,-0.1152 0.4294,-0.1759 0.1471,-0.0713 0.2727,-0.1383 0.3732,-0.2019 0.1091,-0.0681 0.2159,-0.1457 0.3177,-0.232 0.1018,-0.0853 0.1997,-0.1805 0.2917,-0.2819 0.093,-0.1033 0.1836,-0.2174 0.2696,-0.3409 0.0857,-0.1229 0.1685,-0.2574 0.2468,-0.4027 0.0765,-0.1453 0.1422,-0.2889 0.1959,-0.4301 0.0541,-0.1453 0.1011,-0.3019 0.1397,-0.4672 0.0394,-0.1682 0.0681,-0.3388 0.0871,-0.5094 0.0179,-0.1713 0.0274,-0.3585 0.0274,-0.5596 0,-0.2328 -0.013,-0.4487 -0.0404,-0.647 -0.0267,-0.2008 -0.0688,-0.396 -0.1246,-0.5835 -0.0548,-0.1875 -0.1236,-0.3662 -0.2036,-0.5333 -0.0773,-0.1608 -0.1745,-0.3244 -0.289,-0.4894 -0.1081,-0.1586 -0.2257,-0.3029 -0.3521,-0.4335 -0.1313,-0.1352 -0.2689,-0.2563 -0.4125,-0.3602 h -0.002 c -0.1478,-0.1078 -0.3086,-0.2054 -0.4799,-0.2918 -0.1731,-0.0874 -0.3595,-0.1639 -0.5572,-0.2285 -0.2201,-0.0723 -0.4504,-0.1334 -0.6905,-0.1815 -0.2507,-0.0509 -0.5396,-0.0955 -0.8664,-0.1327 -0.3272,-0.0372 -0.6734,-0.0657 -1.036,-0.0832 -0.3515,-0.0172 -0.752,-0.0263 -1.2014,-0.0263 h -3.485 v -4.7679 h 3.0669 c 0.4301,0 0.7948,-0.006 1.0953,-0.0172 0.3385,-0.013 0.6442,-0.0319 0.9142,-0.0575 0.2535,-0.0229 0.4957,-0.0541 0.7232,-0.0934 0.1997,-0.0337 0.3756,-0.0741 0.5259,-0.1201 h 0.005 c 0.1956,-0.0572 0.3806,-0.126 0.5551,-0.2043 0.1727,-0.0783 0.3286,-0.1622 0.4641,-0.2514 0.1334,-0.0881 0.2594,-0.1874 0.377,-0.2977 0.1117,-0.1056 0.2128,-0.2208 0.3033,-0.3444 0.0885,-0.1186 0.1668,-0.251 0.237,-0.3946 v -0.003 c 0.0713,-0.1457 0.1299,-0.2966 0.1745,-0.4511 0.0491,-0.1653 0.086,-0.3388 0.1092,-0.5192 0.0242,-0.1773 0.0358,-0.3764 0.0358,-0.5951 0,-0.3991 -0.0453,-0.7657 -0.1355,-1.0967 -0.0481,-0.1661 -0.1039,-0.3251 -0.1703,-0.4754 -0.0699,-0.159 -0.1485,-0.3057 -0.2328,-0.4381 l -0.005,-0.005 c -0.0849,-0.1359 -0.1801,-0.2619 -0.2829,-0.3764 -0.1029,-0.1141 -0.2138,-0.2166 -0.3314,-0.3065 -0.1236,-0.0941 -0.2538,-0.1766 -0.3894,-0.2461 -0.146,-0.0709 -0.298,-0.1337 -0.4563,-0.1836 -0.1728,-0.0544 -0.382,-0.1025 -0.6263,-0.1453 -0.27,-0.0471 -0.5621,-0.085 -0.8745,-0.1134 -0.33,-0.0302 -0.7025,-0.0537 -1.1171,-0.0695 -0.3753,-0.0137 -0.8247,-0.0211 -1.3467,-0.0211 h -0.4669 -4.2816 -7.7476 z m 7.7476,6.9139 v 2.1419 2.5536 4.7679 3.6886 2.1626 h -5.1915 v -15.3146 z"
           style="fill:#3a3a3a;fill-rule:evenodd"
           id="path2" />
        <path
           d="m 418.135,411.9876 h 4.4248 v 29.1111 h -5.1908 v -29.1111 z"
           style="fill:#3a3a3a;fill-rule:evenodd"
           id="path4" />
        <path
           d="m 394.0608,411.9876 h 4.4259 v 4.0791 c 0,6.0829 0,12.1658 0,18.2487 h -5.1915 v -22.3278 z m 6.5565,11.7481 h 3.6704 c 1.0981,0 2.1116,0.0516 3.0402,0.1555 0.9331,0.1043 1.7743,0.2619 2.521,0.4722 0.7723,0.217 1.4485,0.4912 2.026,0.8226 0.5936,0.3398 1.0918,0.7456 1.493,1.2168 0.3701,0.4346 0.6927,0.8815 0.9651,1.3379 0.2767,0.4623 0.5091,0.9433 0.6951,1.4407 0.1882,0.5031 0.3293,1.0146 0.4209,1.5317 0.0931,0.5228 0.1394,1.0589 0.1394,1.6076 0,0.5697 -0.0505,1.1329 -0.1506,1.6879 -0.1004,0.5508 -0.2499,1.082 -0.4483,1.5928 -0.2001,0.5143 -0.449,1.0089 -0.7474,1.4832 -0.2977,0.474 -0.6435,0.9279 -1.0371,1.3618 -0.4142,0.4564 -0.9159,0.8556 -1.5029,1.195 -0.5715,0.3307 -1.2255,0.606 -1.9606,0.8233 -0.7176,0.2131 -1.5121,0.3721 -2.3817,0.4771 -0.8636,0.1046 -1.802,0.1569 -2.8151,0.1569 h -11.2495 v -4.6527 h 5.1915 5.187 0.6972 c 1.0858,0 2.0137,-0.0884 2.7815,-0.2657 0.7288,-0.1682 1.3091,-0.4129 1.7367,-0.7337 0.205,-0.1563 0.3826,-0.3293 0.5311,-0.5217 0.1513,-0.1956 0.2784,-0.4171 0.3816,-0.6639 0.1061,-0.2538 0.1872,-0.5385 0.2419,-0.8513 0.0551,-0.3202 0.0836,-0.6706 0.0836,-1.0504 0,-0.2528 -0.0162,-0.4919 -0.0492,-0.7151 -0.034,-0.2272 -0.0825,-0.4403 -0.1467,-0.6379 -0.0629,-0.1935 -0.1429,-0.3813 -0.2387,-0.561 v -0.003 c -0.0931,-0.1731 -0.204,-0.3402 -0.3318,-0.5 -0.1264,-0.1579 -0.2658,-0.304 -0.4146,-0.4363 -0.1468,-0.1306 -0.3005,-0.2458 -0.4603,-0.3427 -0.1625,-0.1 -0.3363,-0.1864 -0.5195,-0.2587 -0.1864,-0.073 -0.3827,-0.132 -0.5891,-0.1759 -0.2226,-0.0477 -0.4904,-0.0913 -0.8008,-0.1285 -0.3219,-0.0393 -0.6793,-0.0719 -1.0697,-0.0965 -0.4234,-0.0271 -0.8682,-0.0485 -1.3319,-0.0604 -0.4294,-0.0112 -0.9556,-0.0172 -1.5823,-0.0172 h -1.9754 z"
           style="fill:#3a3a3a;fill-rule:evenodd"
           id="path6" />
        <path
           d="m 518.2289,411.9876 h 4.4255 v 7.7137 4.0344 4.6906 2.2851 3.604 h -5.1912 v -22.3278 z m 4.4255,24.4584 h 3.6128 2.2847 c 0.6558,0 1.2442,-0.028 1.7641,-0.0835 0.5119,-0.0544 0.9725,-0.138 1.3801,-0.2486 0.3858,-0.1049 0.7102,-0.2303 0.97,-0.3739 0.245,-0.1369 0.4416,-0.2913 0.5887,-0.4623 0.1699,-0.197 0.3219,-0.4118 0.4553,-0.6421 0.1278,-0.2222 0.2359,-0.4571 0.323,-0.7032 0.0874,-0.2489 0.1538,-0.5083 0.1973,-0.7762 0.0428,-0.2658 0.0653,-0.5508 0.0653,-0.8548 0,-0.243 -0.0162,-0.4726 -0.0471,-0.6867 -0.0319,-0.2184 -0.0779,-0.4227 -0.1376,-0.6109 -0.0604,-0.1899 -0.1369,-0.3728 -0.2278,-0.5473 -0.0892,-0.1703 -0.1956,-0.3349 -0.3184,-0.4939 l -0.003,-0.002 c -0.119,-0.1555 -0.25,-0.2984 -0.3911,-0.4279 -0.1404,-0.1285 -0.2893,-0.2433 -0.4466,-0.342 -0.1569,-0.099 -0.3282,-0.1857 -0.5129,-0.2612 -0.1885,-0.0765 -0.3844,-0.1379 -0.5852,-0.1832 -0.2292,-0.0523 -0.4985,-0.0983 -0.8057,-0.1377 -0.3016,-0.0375 -0.6631,-0.0716 -1.0837,-0.0993 -0.4297,-0.0295 -0.8815,-0.0509 -1.3551,-0.0639 -0.442,-0.0119 -0.9802,-0.0186 -1.6142,-0.0186 h -1.9825 v -4.6906 h 3.6707 c 0.7717,0 1.5019,0.0235 2.1893,0.0699 0.6768,0.0453 1.3087,0.1158 1.894,0.2099 0.5926,0.0951 1.1293,0.2145 1.6099,0.357 0.4975,0.1485 0.9409,0.3223 1.3267,0.5221 l 0.003,0.002 c 0.3848,0.2015 0.7359,0.4153 1.0511,0.6414 0.3216,0.2303 0.6235,0.4845 0.9022,0.7597 0.2809,0.2763 0.533,0.5688 0.7541,0.8745 0.223,0.3083 0.4206,0.6369 0.5909,0.9841 l 0.002,0.005 c 0.1591,0.3279 0.3009,0.6656 0.4245,1.0104 0.1253,0.3496 0.2285,0.6933 0.3068,1.0286 0.0814,0.3437 0.1425,0.6916 0.1836,1.0448 0.0414,0.3556 0.0628,0.7077 0.0628,1.056 0,1.1606 -0.2004,2.257 -0.6003,3.2863 -0.1994,0.5139 -0.449,1.0097 -0.747,1.4843 -0.2967,0.4729 -0.6414,0.9261 -1.0336,1.3572 -0.4139,0.4606 -0.9159,0.8629 -1.505,1.2063 -0.5715,0.3317 -1.2263,0.6084 -1.9642,0.8271 -0.719,0.2141 -1.5148,0.3739 -2.3869,0.4792 -0.866,0.1039 -1.8094,0.1569 -2.8264,0.1569 h -11.2302 v -4.6527 z"
           style="fill:#3a3a3a;fill-rule:evenodd"
           id="path8" />
        <path
           d="m 487.3599,428.0844 h -2.9339 v -4.7342 h 8.1251 4.8474 7.8723 v -11.3626 h 5.1908 v 16.1305 h -5.1908 -6.6748 -6.0449 v 12.9806 h -5.1912 z m 0,-6.8648 v -9.232 h 5.1912 v 9.232 z m 23.1017,9.0291 v 10.85 h -5.1908 v -10.85 z"
           style="fill:#3a3a3a;fill-rule:evenodd"
           id="path10" />
        <path
           d="m 463.6624,411.9876 h 2.2879 4.4251 0.4764 0.2893 l 11.9316,29.1111 h -5.1912 l -2.6723,-6.5207 h -8.5758 l 1.9235,-4.7011 h 4.7253 l -3.5117,-8.5681 -1.5927,3.8863 -0.006,-0.002 -4.218,10.3084 -2.2942,5.5977 h -5.1916 l 2.6723,-6.5207 h -3.0416 v -4.7011 h 4.969 l 5.32,-12.9789 h -2.7253 z"
           style="fill:#3a3a3a;fill-rule:evenodd"
           id="path12" />
        <path
           d="m 368.8987,441.0791 v 0.0196 h -4.0888 -1.102 -3.7894 v -7.4099 h 4.8914 v 4.0025 l 6.5561,-20.5121 h -3.3004 v -5.1916 h 9.1143 5.1912 3.9225 v 1.8902 3.3014 h -5.1912 -2.3248 -1.5977 -0.5789 l -7.6451,23.9195 z m 17.3949,-21.7693 v 21.7889 h -5.1912 v -21.7889 z"
           style="fill:#3a3a3a;fill-rule:evenodd"
           id="path14" />
        <path
           d="m 304.6597,440.3323 v -23.4498 h -2.5568 v -4.9107 h 5.3372 v 0.0158 h 2.4104 v 12.5963 l 12.6207,-12.5963 h 7.148 l -8.9584,8.6598 -7e-4,-7e-4 -2.5937,2.5087 -0.8959,0.8661 4e-4,3e-4 -3.6834,3.5626 -1.1466,1.1091 -2.4904,2.4086 v 9.9966 h -5.1908 z m 13.7855,-14.579 11.2959,15.3454 h -6.7233 l -8.2875,-11.7523 z"
           style="fill:#3a3a3a;fill-rule:evenodd"
           id="path16" />
        <path
           d="m 346.5208,425.0708 v 4.2581 h -5.2031 v -4.9957 h 5.2031 z m 8.1932,12.5541 c -1.4092,1.4092 -3.0936,2.547 -4.9641,3.3243 -1.4874,0.6185 -3.0911,1.0086 -4.765,1.1251 v -5.1227 c 0.9862,-0.1036 1.9309,-0.3493 2.8124,-0.7165 1.2421,-0.5168 2.3651,-1.2765 3.3074,-2.2188 0.9419,-0.9391 1.7009,-2.0614 2.2187,-3.3067 0.4975,-1.195 0.7723,-2.5052 0.7723,-3.8782 0,-1.373 -0.2748,-2.6832 -0.7723,-3.8782 -0.5164,-1.2424 -1.2765,-2.3648 -2.2187,-3.3074 -0.9388,-0.9412 -2.0618,-1.7002 -3.3067,-2.2191 -0.8822,-0.3665 -1.8269,-0.6123 -2.8131,-0.7158 v -5.1235 c 1.6736,0.1169 3.2769,0.5066 4.7643,1.1255 1.8712,0.7777 3.5556,1.9158 4.9648,3.3243 1.4084,1.4092 2.5462,3.0939 3.3235,4.9641 0.7488,1.8006 1.1631,3.7704 1.1631,5.8294 0,4.0573 -1.6244,7.9306 -4.4866,10.7942 z m -11.8597,4.4498 c -1.6735,-0.1166 -3.2771,-0.5066 -4.7639,-1.1248 -1.8712,-0.778 -3.5559,-1.9158 -4.9651,-3.325 -1.4092,-1.4092 -2.5459,-3.0932 -3.3242,-4.9644 -0.7485,-1.8003 -1.1624,-3.7701 -1.1624,-5.8291 0,-2.0597 0.4143,-4.0295 1.162,-5.8301 0.7787,-1.8702 1.9154,-3.5549 3.3246,-4.9641 1.4092,-1.4085 3.0939,-2.5466 4.9644,-3.3243 1.4875,-0.6189 3.0908,-1.0089 4.7646,-1.1258 v 5.1238 c -0.9864,0.1039 -1.9312,0.3493 -2.8123,0.7158 -1.2428,0.5171 -2.3655,1.2765 -3.3081,2.2191 -0.9423,0.9426 -1.7013,2.0646 -2.2187,3.3074 -0.4968,1.1943 -0.7717,2.5045 -0.7717,3.8775 0,1.373 0.2749,2.6839 0.7717,3.8782 0.5174,1.2428 1.2764,2.3648 2.2187,3.3074 0.9426,0.9423 2.0646,1.702 3.3077,2.2188 0.8815,0.3672 1.8263,0.6126 2.8127,0.7165 z"
           style="fill:#3a3a3a;fill-rule:evenodd"
           id="path18" />
      </g>
    </g>
    <path
       d="m 304.7374,386.9856 h 31.9864 v -31.9864 -3.7877 -11.4301 c 25.1508,-25.2953 50.3037,-50.5884 75.4567,-75.8816 h 15.6426 v 12.7911 h -15.6426 v 25.002 h 15.6426 25.002 v -25.002 -12.7911 -25.0041 h -20.1703 0.002 -36.6908 l -6.7623,6.8032 -0.0754,-0.0129 -52.4047,52.7304 V 185.5916 h 169.4076 v 169.4076 h -96.0497 l -30.4247,-42.312 -20.854,20.9726 38.3107,53.3258 h 1.2252 32.2409 107.538 V 153.6052 H 304.7374 Z"
       style="fill:#e30016;fill-rule:evenodd"
       id="path22" />
  </g>
</svg>
