<svg version="1.0" xmlns="http://www.w3.org/2000/svg" width="375.000000ptpx" height="376.000000ptpx" viewBox="0 0 375.000000 376.000000" preserveAspectRatio="xMidYMid meet" transform="rotate(0) scale(1, 1)">

<g transform="translate(0.000000,376.000000) scale(0.100000,-0.100000)" fill="#d91717" stroke="none">
<path d="M40 1870 l0 -1850 250 0 250 0 0 373 0 372 123 123 124 123 354 -495&#10;354 -495 1120 2 1120 2 0 1845 0 1845 -1847 3 -1848 2 0 -1850z m3190 0 l0&#10;-1350 -762 0 -763 0 -285 396 c-157 218 -289 405 -294 415 -8 16 38 66 300&#10;329 l308 310 128 0 128 0 0 -99 c0 -81 -3 -100 -16 -105 -9 -3 -65 -6 -125 -6&#10;l-109 0 0 -195 0 -195 320 0 320 0 0 495 0 495 -447 2 -448 3 -472 -474 -473&#10;-473 0 901 0 901 1345 0 1345 0 0 -1350z"/>
</g>
</svg>